<?xml version="1.0" standalone="no"?>
<!DOCTYPE svg PUBLIC "-//W3C//DTD SVG 20010904//EN"
 "http://www.w3.org/TR/2001/REC-SVG-20010904/DTD/svg10.dtd">
<svg version="1.0" xmlns="http://www.w3.org/2000/svg"
 width="801.000000pt" height="516.000000pt" viewBox="0 0 801.000000 516.000000"
 preserveAspectRatio="xMidYMid meet">
<metadata>
Created by potrace 1.10, written by Peter Selinger 2001-2011
</metadata>
<g transform="translate(0.000000,516.000000) scale(0.100000,-0.100000)"
fill="#000000" stroke="none">
<path d="M5543 4593 c-49 -60 -148 -133 -181 -133 -18 0 -42 -17 -83 -60 -31
-33 -64 -60 -71 -60 -8 0 -27 -13 -43 -30 -16 -16 -36 -30 -45 -30 -22 0 -60
-41 -60 -66 0 -10 -7 -28 -15 -38 -8 -11 -15 -34 -15 -51 0 -22 -9 -40 -30
-60 -16 -16 -30 -36 -30 -46 0 -9 -16 -35 -36 -58 l-36 -41 -694 0 -693 0 -55
-45 c-56 -45 -56 -45 -134 -45 -68 0 -82 -3 -98 -21 -33 -37 -92 -69 -128 -69
-45 0 -115 -36 -128 -66 -6 -13 -17 -24 -23 -24 -7 0 -18 -7 -25 -15 -7 -8
-24 -15 -39 -15 -26 -1 -71 -30 -71 -48 0 -37 113 -59 140 -27 7 8 27 15 44
15 37 0 56 15 56 45 0 31 19 45 62 45 39 0 100 26 155 67 26 19 44 23 105 23
l74 0 44 45 44 45 721 0 c748 0 745 0 745 40 0 9 14 29 30 45 19 18 30 39 30
56 0 21 7 31 28 41 24 12 28 20 32 73 6 65 25 105 51 105 8 0 28 14 44 30 16
17 36 30 45 30 19 0 59 41 86 88 14 24 25 32 46 32 31 0 147 81 207 144 l35
36 357 0 c242 0 360 -3 364 -11 4 -5 18 -14 31 -19 13 -5 24 -15 24 -23 0 -16
81 -85 129 -109 19 -10 45 -18 58 -18 12 0 25 -5 28 -11 4 -5 18 -14 31 -19
15 -6 24 -18 24 -31 0 -13 22 -44 55 -77 30 -30 58 -65 61 -76 4 -12 20 -36
35 -54 39 -45 39 -89 -1 -127 -16 -16 -30 -35 -30 -42 0 -7 -10 -13 -23 -13
-28 0 -67 -39 -67 -67 0 -21 -23 -46 -53 -56 -9 -4 -22 -18 -29 -32 -11 -24
-15 -25 -93 -25 -72 0 -84 -3 -103 -23 -27 -28 -28 -58 -4 -80 25 -23 164 -24
182 -2 7 9 29 15 54 15 36 0 48 -6 86 -45 24 -25 51 -45 60 -45 9 0 36 -20 60
-45 24 -25 52 -45 62 -45 21 0 48 -37 48 -67 0 -27 64 -101 97 -114 18 -7 23
-16 23 -45 0 -30 9 -46 45 -85 l45 -48 0 -94 c0 -66 4 -99 15 -113 11 -15 14
-57 15 -204 l0 -186 -30 -34 c-16 -19 -30 -44 -30 -55 0 -11 -7 -31 -15 -45
-8 -14 -14 -36 -15 -49 0 -13 -13 -43 -30 -68 -16 -24 -30 -46 -30 -48 0 -13
-64 -95 -74 -95 -16 0 -66 -56 -90 -100 -32 -57 -67 -99 -95 -113 -14 -7 -31
-24 -38 -38 -18 -37 -99 -109 -123 -109 -11 0 -64 -39 -119 -88 -98 -85 -136
-110 -196 -128 -16 -5 -34 -19 -40 -31 -19 -37 -37 -53 -59 -53 -12 0 -35 -14
-51 -30 -16 -17 -38 -30 -49 -30 -12 -1 -32 -7 -46 -15 -14 -8 -47 -14 -74
-15 -45 0 -52 -3 -89 -45 -23 -25 -50 -45 -61 -45 -12 -1 -32 -7 -46 -15 -14
-8 -35 -14 -46 -15 -12 0 -27 -6 -33 -14 -7 -8 -35 -16 -64 -19 -76 -7 -137
-33 -194 -83 -58 -50 -88 -64 -141 -64 -20 -1 -48 -7 -62 -15 -14 -8 -52 -14
-86 -15 -37 0 -68 -6 -80 -15 -10 -8 -25 -15 -32 -15 -7 0 -44 -20 -82 -45
-59 -38 -76 -45 -120 -45 -37 0 -65 -8 -107 -30 l-56 -30 -276 0 c-228 0 -281
-3 -297 -15 -28 -22 -720 -22 -748 0 -16 12 -60 15 -220 15 -155 1 -207 4
-226 15 -14 8 -36 15 -50 15 -14 0 -34 7 -44 15 -11 8 -41 15 -67 15 -29 0
-51 6 -59 15 -8 10 -30 15 -62 15 -43 0 -57 6 -108 45 l-58 45 -124 0 -123 0
-86 43 c-47 24 -113 64 -147 90 -56 43 -65 47 -119 47 -35 1 -66 6 -77 15 -11
8 -28 15 -39 15 -10 0 -44 19 -75 42 -67 50 -82 60 -142 90 -61 31 -140 97
-140 118 0 16 -29 50 -42 50 -3 0 -32 18 -64 39 -32 22 -62 37 -66 35 -5 -3
-8 -27 -8 -53 0 -50 17 -76 54 -82 10 -2 23 -12 27 -21 5 -10 13 -26 17 -35 5
-10 19 -23 31 -29 12 -6 34 -23 49 -37 15 -14 45 -35 67 -47 100 -54 141 -80
186 -119 26 -22 54 -41 61 -41 8 0 23 -7 34 -15 12 -9 43 -14 87 -15 68 0 69
0 147 -60 43 -33 86 -60 95 -60 8 0 41 -14 72 -30 53 -28 62 -30 174 -30 l119
0 61 -45 c52 -38 68 -45 109 -45 30 0 52 -6 60 -15 8 -10 30 -15 64 -15 30 0
60 -6 72 -15 10 -8 33 -15 49 -15 17 0 41 -7 55 -15 19 -11 70 -14 221 -15
156 0 199 -3 215 -15 29 -22 761 -22 790 0 16 12 68 14 297 15 l277 0 57 30
c40 22 69 30 105 30 51 0 79 12 152 62 21 16 47 28 56 28 10 0 23 7 30 15 8
10 31 15 69 15 31 1 67 7 81 15 14 8 41 14 61 15 60 0 131 30 179 74 59 55
108 76 175 76 29 0 57 4 60 10 7 11 92 50 110 50 28 0 104 41 119 65 12 18 26
25 49 25 17 1 43 7 57 15 14 8 43 14 66 15 31 0 46 7 69 30 16 16 37 30 46 30
10 0 33 18 52 41 35 40 97 79 127 79 8 0 49 34 90 75 41 41 81 75 88 75 8 0
30 13 49 30 18 16 39 30 45 30 14 0 181 169 218 220 14 19 33 51 43 70 10 19
35 45 56 57 26 15 52 45 82 94 72 118 89 151 89 174 0 33 35 107 64 135 l26
23 0 217 c0 175 -3 220 -15 236 -10 14 -14 48 -15 129 l0 111 -45 44 c-35 34
-45 51 -45 76 0 32 -22 57 -92 105 -15 10 -31 39 -42 75 -22 71 -40 94 -76 94
-28 0 -45 15 -65 53 -6 12 -24 26 -40 31 -48 14 -58 21 -77 55 -16 28 -17 38
-7 69 7 21 13 43 15 50 2 6 16 12 32 12 35 0 52 16 52 51 0 21 7 31 28 41 26
13 27 16 30 108 3 95 2 96 -28 125 -16 16 -30 36 -30 45 0 8 -27 42 -60 75
-49 48 -60 65 -60 92 0 35 -29 63 -65 63 -39 0 -160 70 -216 125 -31 30 -64
55 -72 55 -8 0 -20 7 -27 15 -11 13 -69 15 -411 15 l-398 0 -38 -47z"/>
<path d="M1786 4295 c-12 -9 -42 -15 -76 -15 -63 0 -69 -4 -148 -98 -29 -35
-51 -52 -66 -52 -12 0 -31 -7 -42 -15 -10 -8 -31 -15 -45 -15 -14 0 -34 -7
-45 -15 -10 -8 -31 -15 -45 -15 -28 0 -69 -37 -69 -63 0 -9 -34 -50 -75 -90
-61 -60 -75 -80 -75 -105 0 -22 -8 -36 -29 -51 -16 -12 -33 -21 -38 -21 -16 0
-53 -45 -53 -64 0 -9 -14 -29 -30 -43 -25 -20 -30 -32 -30 -68 0 -26 -6 -47
-15 -55 -12 -10 -15 -41 -15 -160 0 -168 5 -180 76 -180 45 0 53 -4 79 -45 14
-20 22 -54 25 -103 5 -75 23 -102 28 -43 2 19 10 44 18 55 8 11 14 33 14 48 0
18 5 28 15 28 10 0 15 -10 15 -29 0 -33 33 -79 66 -91 28 -11 33 -55 9 -86
-22 -29 -22 -769 0 -798 10 -13 15 -44 15 -93 0 -54 5 -83 21 -113 12 -22 25
-43 30 -46 5 -3 9 -28 9 -56 0 -60 31 -131 66 -155 13 -8 24 -20 24 -26 0 -19
53 -67 75 -67 24 0 45 18 45 37 0 8 -20 44 -45 81 -25 37 -45 72 -45 78 0 6
-7 17 -15 24 -10 9 -15 32 -15 76 0 59 -2 65 -30 86 -30 22 -30 23 -30 119 0
74 -4 100 -15 109 -23 19 -23 671 0 690 11 9 15 35 15 105 0 100 -5 110 -57
124 -19 5 -29 15 -31 32 -4 30 -95 125 -142 147 -22 11 -36 25 -38 39 -2 13
-13 30 -25 38 -18 13 -23 13 -37 0 -24 -22 -30 -9 -30 65 0 48 4 71 15 80 8 7
15 25 15 41 0 21 7 31 28 41 20 10 28 22 30 48 4 40 27 70 53 70 21 0 69 69
69 98 0 9 34 51 75 92 41 41 75 80 75 87 0 8 11 18 24 23 13 5 27 14 31 19 3
6 21 11 39 11 19 0 39 7 46 15 7 8 22 15 35 15 31 0 100 53 137 105 l32 45 72
0 c51 0 75 4 84 15 18 22 566 22 596 0 10 -8 31 -15 46 -15 19 0 39 -14 72
-52 25 -29 46 -58 46 -65 0 -7 20 -29 45 -50 25 -20 45 -45 45 -54 0 -9 14
-35 30 -57 17 -23 30 -45 30 -50 0 -4 14 -19 30 -34 18 -15 30 -36 30 -50 0
-24 28 -86 50 -113 17 -21 47 -19 60 4 15 29 12 97 -5 111 -8 7 -15 27 -15 45
0 26 -9 41 -42 71 -55 48 -78 82 -78 115 0 26 -21 51 -52 62 -10 3 -30 25 -45
48 -16 22 -40 55 -55 71 -16 17 -28 37 -28 44 0 18 -40 44 -70 44 -14 0 -34 7
-44 15 -29 22 -672 22 -700 0z"/>
<path d="M4979 3164 c-63 -67 -118 -114 -134 -114 -6 0 -21 -10 -33 -23 -17
-18 -22 -37 -24 -102 -3 -71 -5 -80 -23 -83 -42 -8 -65 -42 -65 -97 0 -64 19
-85 78 -85 57 0 72 -19 72 -89 0 -75 16 -91 91 -91 33 0 63 -6 75 -15 10 -8
31 -15 45 -15 14 0 34 -7 45 -15 25 -19 48 -19 64 0 10 12 38 15 134 15 128 0
146 6 146 45 0 12 18 36 45 58 25 21 45 46 45 56 0 9 14 30 30 46 l30 29 0
136 0 136 -33 32 c-18 18 -41 32 -50 32 -9 0 -50 34 -90 75 -40 41 -80 75 -89
75 -8 0 -21 7 -28 15 -10 12 -40 15 -155 15 l-142 0 -34 -36z m185 -63 c6 -10
-66 -51 -89 -51 -20 0 -19 19 2 42 17 19 77 25 87 9z m136 -351 c0 -20 -5 -30
-15 -30 -10 0 -15 10 -15 30 0 20 5 30 15 30 10 0 15 -10 15 -30z m116 -16
c-5 -13 -10 -14 -18 -6 -6 6 -8 18 -4 28 5 13 10 14 18 6 6 -6 8 -18 4 -28z
m-235 -20 c8 -48 5 -54 -32 -54 -27 0 -29 2 -29 40 0 27 6 42 18 49 26 16 36
8 43 -35z m184 -159 c0 -6 -39 -11 -92 -13 -79 -2 -93 0 -93 13 0 13 14 15 93
13 53 -2 92 -7 92 -13z"/>
<path d="M2665 2882 c-88 -46 -124 -74 -125 -100 0 -22 -37 -86 -64 -111 -24
-22 -26 -31 -26 -102 0 -43 5 -89 11 -102 9 -19 6 -32 -17 -73 -14 -27 -33
-56 -40 -65 -8 -8 -14 -23 -14 -31 0 -58 46 -81 170 -88 l95 -5 3 -40 c6 -73
1 -72 291 -74 221 -1 260 1 271 14 8 10 30 15 61 15 46 0 50 2 74 40 14 23 34
44 43 47 27 10 72 55 72 74 0 9 7 22 15 29 12 10 15 37 15 122 0 95 -3 114
-22 148 -13 22 -40 49 -60 62 -21 13 -38 28 -38 34 0 7 -20 28 -44 48 -30 24
-46 46 -48 64 -2 22 -14 33 -65 58 -34 17 -76 43 -93 58 -31 26 -32 26 -203
25 l-172 0 -90 -47z m48 -135 c-14 -28 -32 -66 -40 -83 -8 -18 -26 -37 -39
-43 -15 -7 -27 -22 -31 -41 -6 -31 -39 -64 -55 -54 -17 11 -7 65 22 107 17 25
30 51 30 58 0 31 41 79 82 97 24 11 46 17 50 15 4 -2 -5 -27 -19 -56z m551
-83 c23 -9 20 -34 -3 -34 -22 0 -35 15 -26 30 7 12 8 12 29 4z m130 -119 c18
-28 21 -51 6 -60 -6 -3 -14 5 -19 18 -6 14 -15 28 -20 32 -16 9 -13 35 3 35 7
0 21 -11 30 -25z m-136 -25 c15 -16 36 -46 47 -67 10 -21 25 -46 33 -55 7 -9
12 -27 10 -40 -3 -23 -4 -23 -155 -26 -103 -2 -153 1 -153 8 0 15 69 74 93 80
19 5 29 17 41 50 3 8 10 22 15 30 5 8 12 23 15 33 8 25 23 21 54 -13z m-627
-147 c23 -13 29 -24 27 -43 -3 -24 -6 -25 -75 -28 -82 -3 -88 4 -56 59 20 34
59 39 104 12z m362 -115 c13 -8 76 -15 155 -18 131 -5 174 -19 92 -31 -22 -3
-46 -11 -52 -17 -19 -19 -318 -17 -318 2 0 8 11 17 25 20 15 4 30 17 35 31 11
28 30 31 63 13z"/>
<path d="M6420 2856 c-13 -13 -13 -36 1 -36 6 0 17 7 25 15 18 17 24 18 44 5
19 -12 4 -39 -33 -60 -23 -13 -28 -13 -47 5 -15 14 -36 20 -69 20 -50 0 -130
-32 -131 -52 0 -7 -14 -28 -30 -47 -17 -19 -27 -37 -22 -40 14 -9 60 32 64 56
2 11 10 24 18 28 76 37 99 42 133 27 21 -10 22 -31 1 -51 -8 -9 -13 -20 -9
-25 9 -15 35 -1 35 18 0 22 19 41 42 41 24 0 34 -26 18 -45 -10 -11 -9 -18 4
-30 23 -24 32 -12 29 38 -2 30 2 49 12 57 8 7 15 21 15 31 0 10 8 22 17 28 10
5 15 13 11 16 -11 11 -117 12 -128 1z"/>
<path d="M6279 2683 c-24 -3 -46 -14 -65 -34 -15 -16 -34 -29 -43 -29 -8 0
-22 -7 -30 -14 -11 -10 -22 -12 -31 -6 -12 7 -12 12 4 28 25 29 1 40 -28 13
-12 -12 -30 -21 -39 -21 -11 0 -17 -8 -17 -25 0 -14 -13 -50 -29 -80 -16 -30
-26 -57 -22 -59 11 -7 25 6 38 37 10 22 19 27 47 27 39 0 62 -20 44 -38 -7 -7
-20 -12 -30 -12 -15 0 -18 -9 -18 -65 0 -58 2 -65 20 -65 16 0 20 7 20 33 0
41 15 57 55 57 19 0 42 11 63 30 35 33 39 45 17 54 -8 3 -15 14 -15 24 0 11 7
25 15 32 8 7 15 27 15 46 0 39 12 49 57 46 24 -2 33 2 33 13 0 8 -6 14 -12 13
-7 -1 -29 -3 -49 -5z m-191 -111 c2 -13 -3 -25 -13 -28 -23 -9 -38 10 -30 36
9 27 39 22 43 -8z m55 -28 c-7 -18 -17 -18 -32 -1 -8 10 -7 17 1 25 15 15 39
-3 31 -24z m60 22 c8 -21 -17 -40 -31 -23 -9 10 -8 17 0 25 16 16 25 15 31 -2z
m-17 -94 c-16 -16 -30 -23 -42 -18 -15 6 -14 10 11 36 22 23 31 27 42 18 12
-9 10 -16 -11 -36z"/>
<path d="M6419 2673 c-1 -5 -2 -15 -3 -23 0 -8 -13 -16 -28 -18 -17 -2 -28 -9
-28 -18 0 -12 7 -14 33 -9 30 7 67 31 67 44 0 9 -40 32 -41 24z"/>
<path d="M6302 2588 c-15 -15 -16 -38 -1 -38 16 0 41 29 34 40 -8 13 -18 13
-33 -2z"/>
<path d="M5934 2429 c-3 -6 -2 -15 2 -19 13 -13 59 -16 61 -5 1 6 -5 9 -13 7
-8 -2 -17 4 -20 13 -7 18 -20 20 -30 4z"/>
<path d="M4664 2285 c-10 -8 -36 -15 -57 -15 -23 0 -49 -8 -64 -20 -14 -11
-31 -20 -38 -20 -6 0 -20 9 -30 20 -15 17 -31 20 -99 20 -66 -1 -85 -4 -105
-21 -21 -17 -23 -24 -14 -39 7 -10 9 -21 6 -24 -4 -3 -39 -6 -78 -6 -62 0 -74
-3 -93 -23 -12 -13 -22 -32 -22 -44 0 -26 30 -53 61 -53 14 0 34 -7 46 -15 15
-11 58 -15 164 -17 l144 -3 3 -39 c2 -22 10 -49 18 -60 10 -15 14 -52 14 -137
0 -100 3 -118 18 -132 10 -10 25 -17 33 -17 34 0 39 22 39 176 0 125 -3 154
-15 164 -11 9 -15 27 -13 59 3 46 3 46 45 52 23 3 48 10 55 17 8 6 52 12 97
14 67 2 86 7 95 20 8 13 8 23 -1 37 -10 16 -8 22 12 35 31 20 32 50 3 70 -31
22 -196 22 -224 1z"/>
<path d="M5056 1924 c-11 -8 -39 -14 -62 -14 -34 0 -47 -5 -66 -28 -33 -40
-69 -62 -98 -62 -16 0 -38 -12 -55 -30 -16 -16 -36 -30 -45 -30 -22 0 -60 -42
-60 -67 0 -23 29 -53 52 -53 9 0 21 6 28 14 6 8 28 16 48 18 29 2 40 9 50 31
10 20 20 27 41 27 16 0 34 6 41 14 6 8 21 16 33 18 12 2 28 15 35 31 11 23 19
27 56 27 52 0 69 16 64 61 -4 42 -35 64 -62 43z"/>
<path d="M2000 1885 c-10 -12 -40 -15 -151 -15 l-139 0 0 -34 c0 -28 4 -35 22
-38 14 -2 24 -12 28 -27 7 -29 33 -42 29 -15 -7 38 9 44 105 44 89 0 93 -1
121 -30 31 -33 51 -39 41 -14 -9 24 12 44 44 44 43 0 60 -10 60 -36 0 -29 -31
-47 -66 -38 -20 5 -25 3 -22 -7 3 -9 21 -14 53 -14 44 0 50 -3 56 -25 14 -51
10 -89 -11 -100 -25 -13 -103 -7 -108 9 -6 17 -32 13 -32 -4 0 -20 11 -23 85
-28 71 -5 85 -1 85 24 0 27 27 35 49 15 19 -17 41 -21 41 -8 0 14 -35 42 -53
42 -19 0 -37 29 -37 61 0 12 -7 30 -15 39 -14 15 -14 19 1 31 14 11 17 11 25
-4 6 -9 18 -17 27 -17 10 0 38 -20 62 -45 47 -48 65 -57 55 -26 -11 36 59 56
89 26 18 -19 24 -19 42 -1 25 26 15 32 -49 28 -49 -3 -66 -1 -76 12 -7 9 -28
16 -45 16 -36 0 -56 15 -56 42 0 14 -8 18 -33 18 -37 0 -57 15 -57 42 0 11 -7
18 -19 18 -10 0 -24 7 -31 15 -8 9 -30 15 -60 15 -30 0 -52 -6 -60 -15z m-5
-50 c0 -19 -8 -20 -128 -23 -110 -2 -128 0 -134 14 -3 9 -1 19 5 23 6 4 67 7
134 6 116 0 123 -1 123 -20z m93 3 c4 -19 -35 -35 -50 -20 -6 6 -8 18 -4 27 8
21 50 16 54 -7z m67 3 c3 -5 1 -13 -5 -16 -15 -9 -43 3 -35 15 8 13 32 13 40
1z"/>
<path d="M1803 1717 c2 -6 15 -12 28 -13 43 -1 48 -4 51 -26 2 -12 9 -23 17
-26 10 -3 11 3 6 29 -4 19 -8 34 -9 35 0 1 -23 4 -49 8 -37 4 -48 3 -44 -7z"/>
<path d="M1920 1626 c0 -12 12 -16 51 -16 66 0 62 24 -4 28 -37 2 -47 0 -47
-12z"/>
<path d="M4396 1624 c-12 -8 -43 -14 -76 -14 -34 0 -64 -6 -76 -15 -13 -10
-45 -14 -105 -15 -59 0 -91 -4 -105 -15 -10 -8 -37 -15 -59 -15 -38 -1 -85
-27 -85 -48 0 -5 8 -16 18 -25 25 -23 134 -24 152 -2 9 11 35 15 105 15 70 0
96 4 105 15 9 11 33 15 90 15 88 0 103 10 98 61 -4 42 -35 64 -62 43z"/>
<path d="M2366 1623 c-3 -3 -6 -15 -6 -25 0 -13 -7 -18 -26 -18 -16 0 -24 -5
-21 -12 2 -7 9 -13 15 -12 7 1 20 2 31 3 13 1 20 11 23 31 5 30 -3 46 -16 33z"/>
</g>
</svg>
